<svg xmlns="http://www.w3.org/2000/svg" xmlns:xlink="http://www.w3.org/1999/xlink" width="1920" height="4088" viewBox="0 0 1920 4088"><defs><clipPath id="a"><rect width="221.934" height="164.878" fill="none"/></clipPath><clipPath id="b"><path d="M27.962,9.438V99.392H23.227l4.14,51.487H51.042l22.487-40.242L52.921,61.691l-22-52.253Z" transform="translate(-23.227 -9.438)" fill="none"/></clipPath><linearGradient id="c" x1="-0.882" y1="1.038" x2="-0.844" y2="1.038" gradientUnits="objectBoundingBox"><stop offset="0" stop-color="#b29fcd"/><stop offset="1" stop-color="#d8cfe8"/></linearGradient><clipPath id="d"><path d="M42.61,9.438,21.923,58.571,0,110.636l22.488,40.242H48.519l-2.95-51.487V9.438Z" transform="translate(0 -9.438)" fill="none"/></clipPath><linearGradient id="e" x1="0" y1="1.038" x2="0.039" y2="1.038" xlink:href="#c"/><clipPath id="g"><path d="M68.9,0A68.359,68.359,0,0,0,57.237,1.06c-2.908.405-5.749,1.133-8.588,1.815-2.8.85-5.6,1.66-8.313,2.717-2.721,1.034-5.388,2.2-8,3.464a63.352,63.352,0,0,0-7.591,4.215A106.809,106.809,0,0,1,40.92,7.36,97.085,97.085,0,0,1,57.646,4,70.052,70.052,0,0,1,90.818,7.612a28.814,28.814,0,0,1,3.837,1.66l3.793,1.794c2.621,1.3,5.153,2.77,7.845,3.923l4.026,1.746c1.341.581,2.738,1.039,4.1,1.561,2.719,1.089,5.562,1.836,8.365,2.66a84.251,84.251,0,0,0,17.3,2.723,69.089,69.089,0,0,0,8.739-.2,37.835,37.835,0,0,0,8.546-1.588,59.4,59.4,0,0,1-17.127-.08,97.134,97.134,0,0,1-16.63-3.72,123.686,123.686,0,0,1-15.788-6.38c-2.577-1.188-5.046-2.618-7.572-3.911l-4-1.953a30.372,30.372,0,0,0-4.077-1.8A66.273,66.273,0,0,0,69.57,0Z" transform="translate(-24.746)" fill="none"/></clipPath><linearGradient id="h" x1="-0.35" y1="5.477" x2="-0.335" y2="5.477" xlink:href="#c"/><clipPath id="i"><path d="M20.1,299.645H35.74V2.436h9.776L118.209,175.08,186.3,336.8,112,469.763H33.785" transform="translate(-20.098 -2.436)" fill="none"/></clipPath><linearGradient id="j" x1="-0.882" y1="1.038" x2="-0.838" y2="1.038" xlink:href="#c"/><clipPath id="k"><path d="M140.783,2.436,72.431,164.778,0,336.8,74.3,469.763h86.015l-9.754-170.119V2.436Z" transform="translate(0 -2.436)" fill="none"/></clipPath><linearGradient id="l" x1="0" y1="1.038" x2="0.046" y2="1.038" xlink:href="#c"/><clipPath id="m"><path d="M21.774,0a297.4,297.4,0,0,1,55.2,23.667A258.731,258.731,0,0,1,125.561,57.5c29.445,25.972,50.15,60.823,56.847,99.009.861,4.764,1.466,9.572,2.145,14.365l1.058,14.642c.876,10.207,1.036,20.464,2.5,30.627,1.488,10.163,2.692,20.347,5.107,30.364,1.809,10.112,4.866,19.968,7.828,29.81,6.471,19.523,15.095,38.419,26.512,55.52a172.688,172.688,0,0,0,19.392,23.82c7.121,7.3,15.08,13.935,24.046,18.662-15.963-12.41-28-28.788-37.339-46.21-9.565-17.356-16.4-36.033-21.7-55.038a372.085,372.085,0,0,1-10.1-58.416c-1.116-9.834-1.284-19.793-1.977-29.671l-.956-15.547c-.671-5.187-1.248-10.4-2.159-15.569-4.042-20.552-11.323-40.68-22.4-58.533a183.572,183.572,0,0,0-41.454-46.48C100.523,22.959,61.579,6.821,21.789,0Z" transform="translate(-21.774)" fill="none"/></clipPath><linearGradient id="n" x1="-0.148" y1="1.211" x2="-0.131" y2="1.211" xlink:href="#c"/><clipPath id="o"><rect width="456" height="130.32" fill="none"/></clipPath><clipPath id="p"><rect width="456" height="130.32" fill="#8acab8"/></clipPath><clipPath id="s"><rect width="1920" height="4088"/></clipPath></defs><g id="r" clip-path="url(#s)"><rect width="1920" height="4088" fill="#fff"/><rect width="1920" height="711" transform="translate(0 363)" fill="#40635e"/><text transform="translate(528 711)" fill="#fff" font-size="30" font-family="SegoeUI, Segoe UI"><tspan x="0" y="0">BLABLA ACCROCHE + Animation ce serait chouette ! </tspan><tspan x="0" y="40">CHARTE GRAPHIQUE - BRANDING - IDENTITE RESEAUX SOCIAUX</tspan></text><rect width="30" height="118" transform="translate(945 841)" fill="#fff"/><path d="M38.5,0,77,83H0Z" transform="translate(999 1042) rotate(180)" fill="#fff"/><rect width="519" height="508" rx="146" transform="translate(140.5 3443)" fill="#40635e"/><rect width="519" height="508" rx="146" transform="translate(701 3443)" fill="#c3aed6"/><rect width="519" height="508" rx="146" transform="translate(1260.5 3443)" fill="#40635e"/><text transform="translate(146 1293)" fill="#40635e" font-size="80" font-family="MiniGarden, Mini Garden"><tspan x="0" y="71">QUI SUIS-JE ?</tspan></text><text transform="translate(156 1380)" fill="#707070" font-size="30" font-family="SegoeUI, Segoe UI"><tspan x="0" y="32"></tspan><tspan x="0" y="72">Excitavit hic ardor milites per municipia plurima, quae isdem </tspan><tspan x="0" y="112">conterminant, dispositos et castella, sed quisque serpentes latius pro </tspan><tspan x="0" y="152">viribus repellere moliens, nunc globis confertos, aliquotiens et </tspan><tspan x="0" y="192">dispersos multitudine superabatur ingenti, quae nata et educata inter </tspan><tspan x="0" y="232">editos recurvosque ambitus montium eos ut loca plana persultat et </tspan><tspan x="0" y="272">mollia, missilibus obvios eminus lacessens et ululatu truci perterrens.</tspan><tspan x="0" y="312"></tspan><tspan x="0" y="352">Excitavit hic ardor milites per municipia plurima, quae isdem </tspan><tspan x="0" y="392">conterminant, dispositos et castella, sed quisque serpentes latius pro </tspan><tspan x="0" y="432">viribus repellere moliens, nunc globis confertos, aliquotiens et </tspan><tspan x="0" y="472">dispersos multitudine superabatur ingenti, quae nata et educata inter </tspan><tspan x="0" y="512">editos recurvosque ambitus montium eos ut loca plana persultat et </tspan><tspan x="0" y="552">mollia, missilibus obvios eminus lacessens et ululatu truci perterrens.</tspan></text><text transform="translate(753.5 3293)" fill="#40635e" font-size="80" font-family="MiniGarden, Mini Garden"><tspan x="0" y="71">MES PRESTATIONS</tspan></text><text transform="translate(753 2168)" fill="#40635e" font-size="80" font-family="MiniGarden, Mini Garden"><tspan x="0" y="71">MA PHILOSOPHIE</tspan></text><text transform="translate(193.5 3630)" fill="#fff" font-size="50" font-family="SegoeUI, Segoe UI"><tspan x="-88.928" y="54">CHARTE </tspan><tspan x="-135.303" y="121">GRAPHIQUE</tspan></text><text transform="translate(753.5 3664)" fill="#fff" font-size="50" font-family="SegoeUI, Segoe UI"><tspan x="-67.407" y="54">PRINT</tspan></text><text transform="translate(1318.5 3597)" fill="#fff" font-size="50" font-family="SegoeUI, Segoe UI"><tspan x="-101.025" y="54">IDENTITE </tspan><tspan x="-101.086" y="121">RESEAUX </tspan><tspan x="-101.819" y="188">SOCIAUX</tspan></text><text transform="translate(1004 104)" fill="#c3aed6" font-size="30" font-family="SegoeUI, Segoe UI"><tspan x="-101.55" y="0">PRESENTATION</tspan></text><text transform="translate(1179 104)" fill="#c3aed6" font-size="30" font-family="SegoeUI, Segoe UI"><tspan x="-62.681" y="0">SERVICES</tspan></text><text transform="translate(1396 104)" fill="#c3aed6" font-size="30" font-family="SegoeUI, Segoe UI"><tspan x="-143.752" y="0" xml:space="preserve"> PROJETS/PORTFOLIO</tspan></text><text transform="translate(1595 104)" fill="#c3aed6" font-size="30" font-family="SegoeUI, Segoe UI"><tspan x="-44.963" y="0" xml:space="preserve"> BLOG </tspan></text><text transform="translate(1715 104)" fill="#c3aed6" font-size="30" font-family="SegoeUI, Segoe UI"><tspan x="-64.775" y="0">CONTACT</tspan></text><g transform="translate(145.844 26)"><g transform="translate(0 0)"><g clip-path="url(#a)"><path d="M80.641,74.522a3.867,3.867,0,0,1-1.588-.313q-.7-.312-.7-1.422,0-3.287-.407-33.263-4.465,24-7.272,33.263a1.561,1.561,0,0,1-1.7,1.144A1.614,1.614,0,0,1,67.2,72.823q-3.176-10.3-7.089-32.414-.407,29.093-.407,32.378,0,1.109-.7,1.422a3.851,3.851,0,0,1-1.586.313q-2.107,0-2.106-1.735V22.764q0-1.476,2.549-1.477,2.324,0,2.547,1.441,4.54,28.35,8.6,45.149Q71.483,57.8,74.07,43.6t3.617-20.84q.224-1.476,2.4-1.477a9.759,9.759,0,0,1,1.144.075,2.423,2.423,0,0,1,1.072.369,1.151,1.151,0,0,1,.443,1.034V72.787q0,1.734-2.106,1.735" transform="translate(50.373 19.385)" fill="#2a2a2a"/><path d="M89.783,74.522q-2.141,0-2.14-1.735A154.785,154.785,0,0,0,86.35,56.47H77.786a154.662,154.662,0,0,0-1.292,16.317q0,1.737-2.106,1.735a3.821,3.821,0,0,1-1.586-.313c-.47-.208-.7-.682-.7-1.422a165.342,165.342,0,0,1,1.164-16.833q1.164-10.707,2.749-20.232t3.1-13.033q.59-1.4,2.99-1.4a6.112,6.112,0,0,1,1.809.241,1.818,1.818,0,0,1,1.145,1.125q1.513,3.545,3.1,13.069T90.91,55.954a165.9,165.9,0,0,1,1.164,16.833,1.386,1.386,0,0,1-.7,1.422,3.836,3.836,0,0,1-1.588.313M85.945,53.258q-1.513-12.109-3.877-25.584-2.364,13.364-3.877,25.4Z" transform="translate(65.659 19.385)" fill="#2a2a2a"/><path d="M99.527,74.522a4.492,4.492,0,0,1-4.28-2.8A21.594,21.594,0,0,1,94.1,69.04a25.462,25.462,0,0,0-1.217-2.862,5.661,5.661,0,0,0-3.4-2.99q-.109,7.495-.111,9.6a1.389,1.389,0,0,1-.7,1.422,3.867,3.867,0,0,1-1.588.313q-2.1,0-2.106-1.735l.038-50.023q0-1.479,2.511-1.477A28.12,28.12,0,0,1,98,22.966a11.711,11.711,0,0,1,6.2,5.648q2.049,3.969,2.048,10.91,0,11.556-5.87,17.794a17.8,17.8,0,0,1-6.5,4.393,13.528,13.528,0,0,1,3.176,5.39,14.953,14.953,0,0,0,1.234,2.732,2.021,2.021,0,0,0,1.828,1.07c.81,0,1.4-.6,1.769-1.807a.746.746,0,0,1,.776-.518,3.272,3.272,0,0,1,1.33.313c.47.21.7.476.7.795a5.757,5.757,0,0,1-5.168,4.836M89.559,59.275a10.847,10.847,0,0,0,6.464-2.732,15.576,15.576,0,0,0,4.28-7.457,36.257,36.257,0,0,0,1.253-9.561,24.11,24.11,0,0,0-1.29-8.693,8.564,8.564,0,0,0-4.356-4.744,16.39,16.39,0,0,0-5.833-1.366Z" transform="translate(77.389 19.385)" fill="#2a2a2a"/><path d="M100.684,74.522q-2.1,0-2.1-1.735V22.764q0-1.476,2.547-1.477,2.511,0,2.511,1.366,0,4.394-.332,26.285-.332,20.156-.332,23.849,0,1.109-.7,1.422a3.861,3.861,0,0,1-1.588.313" transform="translate(89.773 19.385)" fill="#2a2a2a"/><path d="M120.115,74.5H107.3q-2.144,0-2.142-1.735l.034-50.023q0-1.442,2.438-1.441l12.48.185a1.555,1.555,0,0,1,1.735,1.735c0,1.009-.581,1.513-1.735,1.513h-9.859l-.371,24.921,10.23.183a1.555,1.555,0,0,1,1.735,1.735c0,1.009-.581,1.513-1.735,1.513h-10.3l-.256,17.979,10.558.185a1.554,1.554,0,0,1,1.735,1.735c0,1.009-.581,1.513-1.735,1.513" transform="translate(95.767 19.402)" fill="#2a2a2a"/><path d="M63.2,110.093q-4.245,0-6.313-5.612Q54.6,98.242,54.6,83.365q0-12.628,2.067-18.975,2.511-7.532,8.713-7.532a5.708,5.708,0,0,1,4.171,1.771,11.934,11.934,0,0,1,2.769,4.763,1.205,1.205,0,0,1,.075.369,1.274,1.274,0,0,1-.7,1.072,2.674,2.674,0,0,1-1.441.441c-.688,0-1.081-.183-1.181-.554q-1.4-4.54-3.839-4.54-3.694,0-4.983,7.383a96.315,96.315,0,0,0-.961,15.8q0,7.346.332,12.534a28.884,28.884,0,0,0,1.366,7.937q1.032,2.751,3.137,2.751,2.989,0,4.651-3.619a.884.884,0,0,1,.85-.629,2.484,2.484,0,0,1,1.458.518A1.441,1.441,0,0,1,71.8,104a.727.727,0,0,1-.075.332q-2.806,5.758-8.527,5.759" transform="translate(49.722 51.778)" fill="#2a2a2a"/><path d="M72.932,110.093A5.849,5.849,0,0,1,68,107.806a14.976,14.976,0,0,1-2.547-6.11,52.6,52.6,0,0,1-.978-8.6q-.183-4.78-.183-9.727,0-12.59,2.1-18.977,2.473-7.532,8.713-7.532,4.909,0,7.643,8.122a54.99,54.99,0,0,1,2.325,17.2q0,14.545-3.212,21.524-2.952,6.385-8.934,6.385m.925-3.506q5.167,0,6.275-13.77.3-4.1.294-8.823,0-4.5-.313-8.732a64.8,64.8,0,0,0-.978-7.624,20.608,20.608,0,0,0-1.716-5.426q-1.052-2.029-2.492-2.031-3.657,0-4.985,7.385a100.357,100.357,0,0,0-.923,15.8A122,122,0,0,0,69.8,99.684q1.029,6.9,4.06,6.9" transform="translate(58.55 51.778)" fill="#2a2a2a"/><path d="M96.668,110.093a2.3,2.3,0,0,1-1.328-.352,2.926,2.926,0,0,1-.923-1.42A315.449,315.449,0,0,1,82.9,71.994q-.481,33.412-.48,36.364a1.388,1.388,0,0,1-.7,1.422,3.771,3.771,0,0,1-1.551.313q-2.141,0-2.14-1.735l.036-50.023q0-1.479,2.547-1.477,2.29,0,2.549,1.441,1.327,7.827,4.651,20.582a185.7,185.7,0,0,0,6.756,21.392V58.335q0-1.479,2.547-1.477,2.511,0,2.511,1.366,0,4.394-.332,26.285-.332,20.157-.332,23.849,0,1.109-.7,1.422a3.86,3.86,0,0,1-1.588.313" transform="translate(71.055 51.778)" fill="#2a2a2a"/><path d="M95.921,110.095q-2.287,0-2.287-1.737V58.335q0-1.476,2.547-1.477,18.715,0,18.717,23.369,0,16.17-6.127,23.627a15.9,15.9,0,0,1-12.849,6.24m2.106-3.619q12.183-1.662,12.182-26.249a38.409,38.409,0,0,0-1.292-10.522q-2.362-8.268-10.226-9.339Z" transform="translate(85.269 51.778)" fill="#2a2a2a"/><path d="M122.374,110.075H109.563q-2.141,0-2.14-1.735l.034-50.023q0-1.442,2.438-1.441l12.479.185a1.554,1.554,0,0,1,1.735,1.735q0,1.513-1.735,1.513h-9.857l-.371,24.921,10.228.183a1.554,1.554,0,0,1,1.735,1.735q0,1.513-1.735,1.513h-10.3l-.258,17.979,10.558.185a1.553,1.553,0,0,1,1.735,1.735q0,1.513-1.735,1.513" transform="translate(97.826 51.795)" fill="#2a2a2a"/></g></g><g transform="translate(44.379 18.033)"><g clip-path="url(#b)"><rect width="50.302" height="141.44" transform="translate(0)" fill="url(#c)"/></g></g><g transform="translate(0 18.033)"><g clip-path="url(#d)"><rect width="48.519" height="141.44" transform="translate(0)" fill="url(#e)"/></g></g><g transform="translate(0 0)"><g clip-path="url(#a)"><rect width="49.694" height="3.863" transform="translate(22.36 161.015)" fill="#b39fcd"/></g></g><g transform="translate(47.281)"><g clip-path="url(#g)"><rect width="133.698" height="30.74" transform="translate(-1.25 0.066) rotate(-3.014)" fill="url(#h)"/></g></g></g><g transform="translate(1306.928 1448)"><g transform="translate(146.627 17.775)"><g clip-path="url(#i)"><rect width="166.201" height="467.327" fill="url(#j)"/></g></g><g transform="translate(0 17.775)"><g clip-path="url(#k)"><rect width="160.314" height="467.327" transform="translate(0)" fill="url(#l)"/></g></g><rect width="164.188" height="12.767" transform="translate(73.875 490.187)" fill="#b39fcd"/><g transform="translate(158.854)"><g clip-path="url(#m)"><rect width="437.509" height="443.76" transform="matrix(0.732, -0.682, 0.682, 0.732, -186.694, 173.945)" fill="url(#n)"/></g></g></g><g transform="translate(188.5 2469.2)"><g transform="translate(0 0)" clip-path="url(#o)"><path d="M456,42.576c0,83.892-110.638,87.742-236.561,87.742S0,126.469,0,42.576,102.079,24.649,228,24.649,456-41.316,456,42.576" transform="translate(0 0.001)" fill="#90003d"/></g></g><g transform="translate(728.5 2469.2)"><g transform="translate(0 0)" clip-path="url(#p)"><path d="M456,42.576c0,83.892-110.638,87.742-236.561,87.742S0,126.469,0,42.576,102.079,24.649,228,24.649,456-41.316,456,42.576" transform="translate(0 0.001)" fill="#8acab8"/></g></g><g transform="translate(1275.5 2469.2)"><g transform="translate(0 0)" clip-path="url(#o)"><path d="M456,42.576c0,83.892-110.638,87.742-236.561,87.742S0,126.469,0,42.576,102.079,24.649,228,24.649,456-41.316,456,42.576" transform="translate(0 0.001)" fill="#90003d"/></g></g><text transform="translate(291.5 2565)" fill="#fff" font-size="60" font-family="MiniGarden, Mini Garden"><tspan x="0" y="0">COMMUNICATION</tspan></text><text transform="translate(881.5 2565)" fill="#fff" font-size="60" font-family="MiniGarden, Mini Garden"><tspan x="0" y="0">CRéativité</tspan></text><text transform="translate(1448.5 2565)" fill="#fff" font-size="60" font-family="MiniGarden, Mini Garden"><tspan x="0" y="0">QUALité</tspan></text><text transform="translate(329 2416)" fill="#535353" font-size="60" font-family="MiniGarden, Mini Garden"><tspan x="0" y="0">animation ???</tspan></text><text transform="translate(847.5 2416)" fill="#535353" font-size="60" font-family="MiniGarden, Mini Garden"><tspan x="0" y="0">animation ???</tspan></text><text transform="translate(1382 2416)" fill="#535353" font-size="60" font-family="MiniGarden, Mini Garden"><tspan x="0" y="0">animation ???</tspan></text></g></svg>